<?xml version="1.0" standalone="no"?><!DOCTYPE svg PUBLIC "-//W3C//DTD SVG 1.1//EN" "http://www.w3.org/Graphics/SVG/1.1/DTD/svg11.dtd"><svg t="1483611838561" class="icon" style="" viewBox="0 0 1024 1024" version="1.1" xmlns="http://www.w3.org/2000/svg" p-id="4172" xmlns:xlink="http://www.w3.org/1999/xlink" width="32" height="32"><defs><style type="text/css"></style></defs><path d="M780.530273 1.341649 788.035556 1.341649C802.028447 12.027132 820.219216 16.479417 832.812823 28.945815 833.194445 45.101249 832.303986 61.129474 830.268655 77.1577 823.78104 79.701863 810.805811 84.79019 804.318197 87.334352 796.68571 87.079936 781.420732 86.825519 773.78824 86.571104 764.50205 71.687751 755.343064 56.677189 745.92966 41.921045 752.671693 38.995259 766.282962 33.143683 773.024996 30.217897 774.933117 23.094241 778.622151 8.592512 780.530273 1.341649L780.530273 1.341649ZM517.463838 75.88562C525.732366 59.094145 521.407291 32.126018 540.742927 23.094241 559.188109 30.090689 569.11034 48.663076 582.467197 62.019931 603.074918 61.002267 623.809843 60.493434 644.544774 60.620642 639.965275 81.609985 628.389336 99.80075 617.06781 117.609889 624.700302 137.199944 632.459998 157.044413 634.368119 178.160965 614.523648 174.980762 594.551973 171.67335 574.707502 168.23873 556.898361 176.252842 544.431963 195.715688 524.333077 197.878227 506.651145 186.683911 516.827796 159.334159 511.357847 141.652229 493.29429 130.076288 475.739567 117.737098 459.838549 103.23537 478.665354 93.440342 498.000992 84.408565 517.463838 75.88562L517.463838 75.88562ZM117.52144 136.182278C142.072611 106.66999 145.380024 38.86805 194.355158 46.246122 217.50704 71.433335 228.065316 105.143491 244.220749 134.910197 278.821364 141.652229 316.474973 139.235273 348.658634 154.754667 369.011937 197.369395 305.280657 220.902901 283.528065 250.669606 286.453852 285.779053 303.75416 321.906165 294.340758 356.761197 255.160649 378.768204 218.397497 334.62698 181.761551 322.923829 145.634439 334.62698 110.143368 377.750539 70.96326 359.178151 58.496862 324.195911 77.832501 286.542302 79.995038 250.669606 55.571075 227.517724 28.730157 206.273964 8.376854 179.051423 12.701932 128.804207 82.793618 147.503803 117.52144 136.182278L117.52144 136.182278ZM833.576067 204.111426C855.074247 222.93823 880.007043 235.023005 909.392122 232.987674 902.777298 244.436407 896.035265 255.757931 889.420442 267.079456 892.473441 277.128899 898.579428 297.227786 901.632427 307.404436 873.646632 296.082912 847.950586 307.150021 823.90825 321.270125 822.763378 312.111138 820.346425 293.538749 819.201547 284.379763 807.880027 275.220777 796.68571 265.934582 785.491393 256.648388 798.339413 251.05123 811.06023 245.58128 823.90825 240.238537 826.325208 231.20676 831.159114 213.143203 833.576067 204.111426L833.576067 204.111426ZM570.255218 346.83896C593.407095 328.139364 591.626183 282.726058 626.735627 279.673062 644.163146 299.263115 653.703754 324.068704 665.78853 346.96617 692.247825 354.598658 729.901431 346.075711 747.201741 370.626884 738.933214 397.340593 711.710669 411.84232 694.028737 431.813999 696.954522 457.382836 707.258385 483.206088 702.042852 509.029341 673.293813 522.76782 646.198477 493.255532 619.866391 484.096546 597.223344 495.672486 574.96192 508.393301 550.919579 516.661829 518.354295 500.251979 546.721709 458.654917 545.831252 431.813999 530.184651 409.552574 482.354391 391.870644 499.654698 359.9414 522.80658 353.708201 546.976126 352.308912 570.255218 346.83896L570.255218 346.83896ZM241.040546 570.598081C276.404409 502.28731 309.22411 432.45004 347.004927 365.41135 352.474877 367.701096 363.160361 372.280589 368.503103 374.570336 406.41113 437.665575 435.923418 505.72193 470.269616 570.8525 539.85247 581.283567 609.562533 589.933722 679.145387 600.746411 692.756656 602.527323 703.187723 609.650978 710.438588 621.862963 655.993503 677.707338 597.604966 729.60826 541.506177 783.926135 553.59095 858.088482 570.255218 931.741998 579.032576 1006.413175 574.834711 1009.33896 566.311764 1015.06333 562.113895 1017.989114 490.877336 989.367285 424.983519 948.53347 355.78229 915.332147 288.107559 948.279051 222.976989 986.187082 154.411802 1016.844242 148.30581 1014.936121 135.96662 1011.247081 129.860631 1009.466169 143.344693 934.15895 156.57434 858.851732 169.931195 783.544513 113.577988 729.989882 56.461532 677.071297 0.871574 622.626213 5.196651 617.919511 13.719596 608.633316 18.044674 603.926613 91.825395 589.806512 166.878199 582.93727 241.040546 570.598081L241.040546 570.598081ZM888.529988 477.863347C895.144806 466.032989 901.75963 454.32984 908.501663 442.626692 916.770196 454.32984 924.784304 466.032989 932.671209 477.990554 945.900857 480.534717 959.003295 483.078881 972.232943 485.623042 952.134059 505.976346 943.483904 531.672391 945.010404 560.039806 920.968061 541.340209 895.653643 548.718281 871.229679 560.548639 871.611301 550.371987 872.50176 530.145893 872.883382 519.969242 864.233233 508.647716 855.837491 497.326193 847.568964 485.750252 857.745613 483.842129 878.226125 479.898677 888.529988 477.863347L888.529988 477.863347ZM800.883575 744.74603C823.90825 716.887444 825.434749 656.209163 868.812726 656.336373 886.876279 684.322162 900.233136 714.852113 915.498109 744.491611 949.844309 754.795469 1000.60036 742.45628 1021.716912 774.76715 1004.543812 804.915479 974.013855 824.887159 950.225937 849.692746 951.87964 884.03894 974.268274 922.201384 959.003295 954.639462 922.367351 958.455706 891.455772 927.416917 858.508863 914.18727 825.053121 926.017627 793.505508 961.381495 757.123977 953.367381 744.275951 920.674884 764.629259 883.530109 766.537381 849.183909 741.731789 825.777613 715.526912 803.516188 693.774319 777.184102 713.491581 740.29374 766.155753 755.685928 800.883575 744.74603L800.883575 744.74603Z" p-id="4173" fill="#f4ea2a"></path></svg>